<svg width="42" height="24" viewBox="0 0 42 24" xmlns="http://www.w3.org/2000/svg"><g clip-path="url(#557c882e-0ac8-4c3b-b14c-606dc86e4832)"><path d="M29.39 21.952c1.328-1.422 5.014-3.72 9.024-.22-2.152 2.389-5.849 3.197-9.025.22z" fill="url(#051e16dd3e6407aba653402cae45d2d3__b)"></path><path d="M33.78 18.193c1.084-3.457 4.66-4.615 7.54-2.892-.763 2.998-4.333 4.857-7.54 2.892z" fill="url(#051e16dd3e6407aba653402cae45d2d3__c)"></path><path d="M36.495 13.755c-.46-4.054 2.148-6.265 5.328-6.066.735 3.569-1.942 6.22-5.328 6.066z" fill="url(#051e16dd3e6407aba653402cae45d2d3__d)"></path><path d="M36.714 8.498c-2.288-3.178-1.843-5.912 1.336-8.2 2.288 3.178 1.843 5.912-1.336 8.2z" fill="url(#051e16dd3e6407aba653402cae45d2d3__e)"></path><path d="M12.61 21.952c-1.328-1.422-5.014-3.72-9.024-.22 2.152 2.389 5.849 3.197 9.025.22z" fill="url(#051e16dd3e6407aba653402cae45d2d3__f)"></path><path d="M8.219 18.193c-1.083-3.457-4.66-4.615-7.54-2.892.763 2.998 4.334 4.857 7.54 2.892z" fill="url(#051e16dd3e6407aba653402cae45d2d3__g)"></path><path d="M5.505 13.755C5.965 9.701 3.357 7.49.177 7.69c-.735 3.569 1.942 6.22 5.328 6.066z" fill="url(#051e16dd3e6407aba653402cae45d2d3__h)"></path><path d="M5.286 8.498C7.574 5.32 7.129 2.586 3.95.298c-2.288 3.178-1.843 5.912 1.336 8.2z" fill="url(#051e16dd3e6407aba653402cae45d2d3__i)"></path><path d="M21 1a9.002 9.002 0 0 0-6.366 15.362c1.63 1.63 5.466 3.988 5.693 6.465.033.37.303.673.673.673.37 0 .64-.303.673-.673.227-2.477 4.06-4.831 5.689-6.46A9.002 9.002 0 0 0 21 1z" fill="url(#051e16dd3e6407aba653402cae45d2d3__j)"></path><path d="M21 13.079a3.079 3.079 0 1 1 0-6.158 3.079 3.079 0 0 1 0 6.158z" fill="#fff"></path></g><defs><linearGradient id="051e16dd3e6407aba653402cae45d2d3__b" x1="38.386" y1="22.046" x2="29.381" y2="22.388" gradientUnits="userSpaceOnUse"><stop stop-color="#FC0"></stop><stop offset="1" stop-color="#FE9B21"></stop></linearGradient><linearGradient id="051e16dd3e6407aba653402cae45d2d3__c" x1="41.312" y1="15.31" x2="33.951" y2="18.668" gradientUnits="userSpaceOnUse"><stop stop-color="#FC0"></stop><stop offset="1" stop-color="#FE9B21"></stop></linearGradient><linearGradient id="051e16dd3e6407aba653402cae45d2d3__d" x1="41.712" y1="7.609" x2="36.973" y2="14.165" gradientUnits="userSpaceOnUse"><stop stop-color="#FC0"></stop><stop offset="1" stop-color="#FE9B21"></stop></linearGradient><linearGradient id="051e16dd3e6407aba653402cae45d2d3__e" x1="37.979" y1=".297" x2="37.305" y2="8.595" gradientUnits="userSpaceOnUse"><stop stop-color="#FC0"></stop><stop offset="1" stop-color="#FE9B21"></stop></linearGradient><linearGradient id="051e16dd3e6407aba653402cae45d2d3__f" x1="3.614" y1="22.046" x2="12.619" y2="22.388" gradientUnits="userSpaceOnUse"><stop stop-color="#FC0"></stop><stop offset="1" stop-color="#FE9B21"></stop></linearGradient><linearGradient id="051e16dd3e6407aba653402cae45d2d3__g" x1=".688" y1="15.31" x2="8.049" y2="18.668" gradientUnits="userSpaceOnUse"><stop stop-color="#FC0"></stop><stop offset="1" stop-color="#FE9B21"></stop></linearGradient><linearGradient id="051e16dd3e6407aba653402cae45d2d3__h" x1=".288" y1="7.609" x2="5.027" y2="14.165" gradientUnits="userSpaceOnUse"><stop stop-color="#FC0"></stop><stop offset="1" stop-color="#FE9B21"></stop></linearGradient><linearGradient id="051e16dd3e6407aba653402cae45d2d3__i" x1="4.021" y1=".297" x2="4.695" y2="8.595" gradientUnits="userSpaceOnUse"><stop stop-color="#FC0"></stop><stop offset="1" stop-color="#FE9B21"></stop></linearGradient><linearGradient id="051e16dd3e6407aba653402cae45d2d3__j" x1="21" y1="1" x2="21" y2="23.5" gradientUnits="userSpaceOnUse"><stop stop-color="#FF6122"></stop><stop offset="1" stop-color="#F22411"></stop></linearGradient><clipPath id="557c882e-0ac8-4c3b-b14c-606dc86e4832"><path fill="#fff" d="M0 0h42v24H0z"></path></clipPath></defs></svg>